<svg width="162" height="126" viewBox="0 0 162 126" fill="none" xmlns="http://www.w3.org/2000/svg">
<path d="M59.0342 9.5C59.1382 9.50002 59.2259 9.52613 59.2881 9.56055C59.3258 9.58147 59.3711 9.61384 59.4189 9.67676L59.4668 9.75L109.841 97C109.906 97.1134 109.916 97.1917 109.915 97.249C109.914 97.3202 109.893 97.4097 109.841 97.5C109.789 97.5902 109.722 97.6528 109.661 97.6895C109.612 97.719 109.539 97.7499 109.408 97.75H8.66016C8.52901 97.75 8.45643 97.719 8.40723 97.6895C8.34625 97.6528 8.27964 97.5902 8.22754 97.5C8.17542 97.4097 8.15457 97.3202 8.15332 97.249C8.15237 97.1917 8.16208 97.1134 8.22754 97L58.6006 9.75C58.6662 9.63637 58.7301 9.58838 58.7803 9.56055C58.8425 9.52617 58.9302 9.5 59.0342 9.5Z" fill="#FFCE63" stroke="#EA2323" stroke-width="9"/>
<path d="M61.9697 37.3144L61.4726 73.8997H55.7064L55.2094 37.3144H61.9697ZM58.5895 88.6134C57.3634 88.6134 56.3112 88.1743 55.4331 87.2961C54.5549 86.4179 54.1158 85.3658 54.1158 84.1396C54.1158 82.9135 54.5549 81.8613 55.4331 80.9831C56.3112 80.105 57.3634 79.6659 58.5895 79.6659C59.8157 79.6659 60.8678 80.105 61.746 80.9831C62.6242 81.8613 63.0633 82.9135 63.0633 84.1396C63.0633 84.9515 62.8562 85.6971 62.4419 86.3765C62.0443 87.0558 61.5058 87.6026 60.8264 88.0169C60.1636 88.4145 59.418 88.6134 58.5895 88.6134Z" fill="#EA2323"/>
<path d="M109.876 54.5758C103.502 48.8261 93.7276 49.2341 87.8524 55.4243L87.576 55.7234C81.7351 62.1981 82.2489 72.1821 88.7236 78.023L89.0293 78.2922C95.4062 83.7585 104.964 83.266 110.746 77.1739L111.023 76.8754C116.773 70.5018 116.364 60.7282 110.174 54.8529L109.876 54.5758ZM115.234 48.6357C124.989 57.4361 125.764 72.4787 116.963 82.2341C108.163 91.9894 93.1203 92.7635 83.365 83.9631C73.6096 75.1627 72.8355 60.1201 81.6359 50.3648C90.4363 40.6095 105.479 39.8353 115.234 48.6357Z" fill="#303233"/>
<path d="M115.5 75.0549L126.703 85.1606L121.344 91.1007L110.142 80.995L115.5 75.0549Z" fill="#303233"/>
<path d="M119.976 92.9848C119.155 92.2449 119.09 90.9802 119.83 90.1601L125.612 83.7513C126.352 82.9312 127.616 82.8661 128.436 83.606L148.392 101.608C149.212 102.348 149.277 103.613 148.538 104.433L142.756 110.842C142.016 111.662 140.752 111.727 139.932 110.987L119.976 92.9848Z" fill="#303233"/>
</svg>
