<svg width="19" height="26" viewBox="0 0 19 26" fill="none" xmlns="http://www.w3.org/2000/svg">
<path d="M3.03044 9.86928C4.02775 13.5664 6.19261 16.8682 9.17273 19.2816L12.3149 17.231C12.7006 16.9794 13.195 16.9724 13.5782 17.2009C14.8082 17.9154 16.1866 18.4516 17.65 18.7593C18.2991 18.8957 18.7185 19.5385 18.5821 20.1875L17.7162 24.3063C17.5797 24.9554 16.937 25.3748 16.2879 25.2384C5.20617 22.9087 -1.88683 12.0396 0.442854 0.95783C0.57931 0.308739 1.22203 -0.11069 1.87112 0.0257666L6.0017 0.894125C6.65079 1.03058 7.07022 1.6733 6.93376 2.32239C6.62364 3.7976 6.56195 5.26342 6.72073 6.677C6.76372 7.11735 6.57254 7.55777 6.17263 7.81875L3.03044 9.86928Z" fill="#4291F1"/>
</svg>
