<svg width="71" height="35" viewBox="0 0 71 35" fill="none" xmlns="http://www.w3.org/2000/svg">
<path d="M17.138 33.684H14.784V25.698H10.846V23.52H14.784V20.792H10.846V18.592H14.784V13.664H17.138V33.684ZM10.692 21.914C10.692 22.6473 10.56 23.3367 10.296 23.982C10.0467 24.6127 9.68733 25.1627 9.218 25.632C8.76333 26.116 8.22067 26.4973 7.59 26.776C6.95933 27.04 6.27 27.172 5.522 27.172C4.774 27.172 4.08467 27.04 3.454 26.776C2.82333 26.4973 2.28067 26.116 1.826 25.632C1.37133 25.1627 1.01933 24.6127 0.77 23.982C0.520667 23.3367 0.396 22.6473 0.396 21.914C0.396 21.1807 0.528 20.4987 0.792 19.868C1.056 19.2227 1.42267 18.658 1.892 18.174C2.34667 17.7047 2.882 17.3307 3.498 17.052C4.12867 16.7733 4.80333 16.634 5.522 16.634C6.27 16.634 6.95933 16.7733 7.59 17.052C8.22067 17.3307 8.76333 17.712 9.218 18.196C9.68733 18.6653 10.0467 19.2227 10.296 19.868C10.56 20.5133 10.692 21.1953 10.692 21.914ZM8.272 21.914C8.272 21.5473 8.206 21.1807 8.074 20.814C7.95667 20.4473 7.78067 20.1173 7.546 19.824C7.326 19.5307 7.04 19.296 6.688 19.12C6.35067 18.9293 5.962 18.834 5.522 18.834C5.09667 18.834 4.71533 18.9293 4.378 19.12C4.04067 19.296 3.762 19.5233 3.542 19.802C3.30733 20.0953 3.124 20.4253 2.992 20.792C2.87467 21.1587 2.816 21.5253 2.816 21.892C2.816 22.288 2.87467 22.6693 2.992 23.036C3.124 23.4027 3.30733 23.7327 3.542 24.026C3.77667 24.3047 4.06267 24.532 4.4 24.708C4.73733 24.884 5.11133 24.972 5.522 24.972C5.94733 24.972 6.32867 24.8913 6.666 24.73C7.018 24.554 7.31133 24.3193 7.546 24.026C7.78067 23.7473 7.95667 23.4247 8.074 23.058C8.206 22.6913 8.272 22.31 8.272 21.914ZM34.1354 24.972H22.8714V15.468H25.2034V22.75H34.1354V24.972ZM38.0074 31H19.1754V28.756H38.0074V31ZM58.102 19.978H54.648V24.642H52.272V13.664H54.648V17.734H58.102V19.978ZM49.72 23.3H39.798V14.544H42.108V21.056H49.72V23.3ZM54.868 34.454H44.066V28.734H51.92V27.59H43.956V25.39H54.34V30.912H46.53V32.188H54.868V34.454Z" fill="#979EA1"/>
<path d="M59 13V0.0123544C60.3169 0.012354 65.2553 -0.637023 65.2553 7.48024C68.5476 7.15555 71.7301 10.186 70.8522 13H59Z" fill="#FFD86D"/>
</svg>
